<svg width="1920" height="1080" viewBox="0 0 1920 1080" fill="none" xmlns="http://www.w3.org/2000/svg">
<rect width="1920" height="1080" fill="#E5E5E5"/>
<rect width="1920" height="1080" fill="#F5FFFC"/>
<path d="M896.749 289.5C897.716 289.5 898.5 288.717 898.5 287.75C898.5 286.783 897.716 286 896.749 286C895.783 286 895 286.783 895 287.75C895 288.717 895.783 289.5 896.749 289.5Z" fill="#3D3F40"/>
<path d="M1546.75 626.5C1547.72 626.5 1548.5 625.717 1548.5 624.75C1548.5 623.783 1547.72 623 1546.75 623C1545.78 623 1545 623.783 1545 624.75C1545 625.717 1545.78 626.5 1546.75 626.5Z" fill="#3D3F40"/>
<path d="M1841.75 363.5C1842.72 363.5 1843.5 362.717 1843.5 361.75C1843.5 360.783 1842.72 360 1841.75 360C1840.78 360 1840 360.783 1840 361.75C1840 362.717 1840.78 363.5 1841.75 363.5Z" fill="#3D3F40"/>
<path d="M1408.75 275.5C1409.72 275.5 1410.5 274.717 1410.5 273.75C1410.5 272.783 1409.72 272 1408.75 272C1407.78 272 1407 272.783 1407 273.75C1407 274.717 1407.78 275.5 1408.75 275.5Z" fill="#3D3F40"/>
<path d="M1730.75 108.5C1731.72 108.5 1732.5 107.717 1732.5 106.75C1732.5 105.783 1731.72 105 1730.75 105C1729.78 105 1729 105.783 1729 106.75C1729 107.717 1729.78 108.5 1730.75 108.5Z" fill="#3D3F40"/>
<path d="M1269.75 538.5C1270.72 538.5 1271.5 537.717 1271.5 536.75C1271.5 535.783 1270.72 535 1269.75 535C1268.78 535 1268 535.783 1268 536.75C1268 537.717 1268.78 538.5 1269.75 538.5Z" fill="#3D3F40"/>
<path d="M362.749 536.5C363.716 536.5 364.5 535.717 364.5 534.75C364.5 533.783 363.716 533 362.749 533C361.783 533 361 533.783 361 534.75C361 535.717 361.783 536.5 362.749 536.5Z" fill="#3D3F40"/>
<path d="M1735.75 901.5C1736.72 901.5 1737.5 900.717 1737.5 899.75C1737.5 898.783 1736.72 898 1735.75 898C1734.78 898 1734 898.783 1734 899.75C1734 900.717 1734.78 901.5 1735.75 901.5Z" fill="#3D3F40"/>
<path d="M618.749 135.5C619.716 135.5 620.5 134.717 620.5 133.75C620.5 132.783 619.716 132 618.749 132C617.783 132 617 132.783 617 133.75C617 134.717 617.783 135.5 618.749 135.5Z" fill="#3D3F40"/>
<path d="M1487.75 978.5C1488.72 978.5 1489.5 977.717 1489.5 976.75C1489.5 975.783 1488.72 975 1487.75 975C1486.78 975 1486 975.783 1486 976.75C1486 977.717 1486.78 978.5 1487.75 978.5Z" fill="#3D3F40"/>
<path d="M786.749 921.5C787.716 921.5 788.5 920.717 788.5 919.75C788.5 918.783 787.716 918 786.749 918C785.783 918 785 918.783 785 919.75C785 920.717 785.783 921.5 786.749 921.5Z" fill="#3D3F40"/>
<path d="M1049.75 113.5C1050.72 113.5 1051.5 112.717 1051.5 111.75C1051.5 110.783 1050.72 110 1049.75 110C1048.78 110 1048 110.783 1048 111.75C1048 112.717 1048.78 113.5 1049.75 113.5Z" fill="#3D3F40"/>
<path d="M127.749 728.5C128.716 728.5 129.5 727.717 129.5 726.75C129.5 725.783 128.716 725 127.749 725C126.783 725 126 725.783 126 726.75C126 727.717 126.783 728.5 127.749 728.5Z" fill="#3D3F40"/>
<path d="M524.749 358.5C525.716 358.5 526.5 357.717 526.5 356.75C526.5 355.783 525.716 355 524.749 355C523.783 355 523 355.783 523 356.75C523 357.717 523.783 358.5 524.749 358.5Z" fill="#3D3F40"/>
<path d="M1170.75 825.5C1171.72 825.5 1172.5 824.717 1172.5 823.75C1172.5 822.783 1171.72 822 1170.75 822C1169.78 822 1169 822.783 1169 823.75C1169 824.717 1169.78 825.5 1170.75 825.5Z" fill="#3D3F40"/>
<path d="M205.749 353.5C206.716 353.5 207.5 352.717 207.5 351.75C207.5 350.783 206.716 350 205.749 350C204.783 350 204 350.783 204 351.75C204 352.717 204.783 353.5 205.749 353.5Z" fill="#3D3F40"/>
<path d="M677.749 608.5C678.716 608.5 679.5 607.717 679.5 606.75C679.5 605.783 678.716 605 677.749 605C676.783 605 676 605.783 676 606.75C676 607.717 676.783 608.5 677.749 608.5Z" fill="#3D3F40"/>
<path d="M290.749 961.5C291.716 961.5 292.5 960.717 292.5 959.75C292.5 958.783 291.716 958 290.749 958C289.783 958 289 958.783 289 959.75C289 960.717 289.783 961.5 290.749 961.5Z" fill="#3D3F40"/>
<path d="M59.7493 103.5C60.716 103.5 61.5 102.717 61.5 101.75C61.5 100.783 60.716 100 59.7493 100C58.7825 100 58 100.783 58 101.75C58 102.717 58.7825 103.5 59.7493 103.5Z" fill="#3D3F40"/>
</svg>
